D:\PredSimResults\Vitruvian_Man\IG_v40ms_ATx70.mot
version=1
nRows=16
nColumns=31
inDegrees=yes
endheader
                time	         pelvis_tilt	           pelvis_tx	           pelvis_ty	       hip_flexion_r	        knee_angle_r	       ankle_angle_r	       hip_flexion_l	        knee_angle_l	       ankle_angle_l	    lumbar_extension	          arm_flex_r	          arm_flex_l	hamstrings_r/activation	bifemsh_r/activation	glut_max_r/activation	iliopsoas_r/activation	rect_fem_r/activation	  vasti_r/activation	gastroc_r/activation	 soleus_r/activation	tib_ant_r/activation	hamstrings_l/activation	bifemsh_l/activation	glut_max_l/activation	iliopsoas_l/activation	rect_fem_l/activation	  vasti_l/activation	gastroc_l/activation	 soleus_l/activation	tib_ant_l/activation	
          0.63121683	         -1.08005618	          2.49947656	          1.00558158	         23.15088421	         -8.65593442	          9.72799518	         -8.94126560	        -35.81284780	         -9.94560498	        -10.90759769	         39.76805095	         39.76805095	          0.98476943	          0.30263673	          0.53805896	          0.10070804	          0.06749845	          0.09582627	          0.08707985	          0.06872723	          0.93127017	          0.05000009	          0.99963366	          0.05000004	          0.99991959	          0.99656639	          0.05000003	          0.82639474	          0.09843416	          0.99950609	
          0.63752899	         -0.99602284	          2.52461412	          1.00207433	         22.45491172	         -9.77354048	          9.29682868	         -7.47729295	        -37.61677724	         -9.03563325	        -11.14834286	         38.97570845	         38.97570845	          0.98928035	          0.27382916	          0.67487513	          0.09112179	          0.06107361	          0.08670470	          0.07879083	          0.06218518	          0.95162635	          0.05000006	          0.99974213	          0.05000005	          0.99994339	          0.99758329	          0.05000002	          0.87780902	          0.08906435	          0.99965222	
          0.64384116	         -0.94337683	          2.54940269	          0.99828434	         21.97723593	        -11.54970953	          8.56854620	         -5.83250772	        -39.47299493	         -8.12875062	        -11.39200040	         38.33426922	         38.33426922	          0.99245525	          0.24776374	          0.77116954	          0.08244803	          0.05526012	          0.07845141	          0.07129084	          0.05626585	          0.96595350	          0.05526037	          0.99981846	          0.05000016	          0.99996012	          0.99829894	          0.05000007	          0.91399864	          0.08058649	          0.99975339	
          0.65015333	         -0.92660913	          2.57354843	          0.99459835	         21.84080451	        -13.73287149	          7.38836458	         -3.96311370	        -41.37832203	         -7.31180390	        -11.67544606	         37.84344059	         37.84344059	          0.99468979	          0.22417946	          0.83894379	          0.07459993	          0.05000001	          0.07098373	          0.06450476	          0.05090998	          0.97603728	          0.05000024	          0.99987219	          0.05000003	          0.99997191	          0.99880268	          0.05000003	          0.93940712	          0.07291558	          0.99982629	
          0.65646550	         -0.94262498	          2.59698083	          0.99116739	         22.14317164	        -16.50794854	          5.92318145	         -1.87425602	        -43.31057846	         -6.45400570	        -12.00924967	         37.50429980	         37.50429980	          0.90000663	          0.20284012	          0.88664489	          0.06749887	          0.05000013	          0.34613673	          0.05836464	          0.05526014	          0.94018382	          0.05051413	          0.99991001	          0.05000011	          0.99998019	          0.99915714	          0.05000003	          0.86890607	          0.06597485	          0.99987755	
          0.66277767	         -0.99929969	          2.61997107	          0.98784164	         22.73621318	        -19.77285914	          5.20084008	          0.39261797	        -45.22652940	         -5.45492095	        -12.34002452	         37.31716274	         37.31716274	          0.81433837	          0.18353205	          0.92021803	          0.06107375	          0.05000021	          0.53979581	          0.05280899	          0.05000001	          0.94428946	          0.13517177	          0.99993663	          0.05000004	          0.99998596	          0.99940631	          0.05000003	          0.90773237	          0.06525820	          0.99990873	
          0.66908984	         -1.09710047	          2.64280996	          0.98449921	         23.36323434	        -23.12588264	          5.35510428	          2.79705224	        -47.10780902	         -4.49120969	        -12.62151077	         37.28137229	         37.28137229	          0.73682261	          0.16606188	          0.94384759	          0.05526023	          0.05000003	          0.67609758	          0.05000003	          0.33136790	          0.85440379	          0.39131349	          0.99995536	          0.05000006	          0.99998853	          0.90427572	          0.05000003	          0.93505434	          0.05904639	          0.99993534	
          0.67540200	         -1.23709315	          2.66563654	          0.98113605	         23.85832686	        -26.27991531	          6.32025167	          5.32864044	        -48.99847156	         -3.58745968	        -12.82914580	         37.39693462	         37.39693462	          0.66668549	          0.15025467	          0.96047863	          0.05000010	          0.11130238	          0.77202994	          0.33136789	          0.52940116	          0.77307422	          0.51245798	          0.99996853	          0.05000009	          0.99998518	          0.87530780	          0.05000004	          0.84606504	          0.05342590	          0.99995398	
          0.68171417	         -1.41953020	          2.68845828	          0.97784345	         24.16836959	        -29.09911140	          7.70308597	          7.99091429	        -50.96673119	         -2.60903048	        -12.95935646	         37.66439459	         37.66439459	          0.60322484	          0.13595214	          0.97218394	          0.05000005	          0.10070769	          0.83954937	          0.52940086	          0.66878158	          0.69948630	          0.51970531	          0.99997780	          0.05000008	          0.99998066	          0.87279520	          0.05000004	          0.76553543	          0.05000009	          0.99996662	
          0.68802634	         -1.64510340	          2.71128687	          0.97468745	         24.26342502	        -31.45471027	          8.90789165	         10.78266238	        -53.06183829	         -1.58715087	        -13.00766489	         38.08388637	         38.08388637	          0.54580570	          0.12301104	          0.98042241	          0.05000006	          0.09112148	          0.88707111	          0.66878122	          0.76688077	          0.63290312	          0.52838741	          0.99998432	          0.05000008	          0.98285466	          0.83561272	          0.05000004	          0.69310028	          0.05000013	          0.99996978	
          0.69433851	         -1.91386869	          2.73412969	          0.97171644	         24.16963259	        -33.40188822	          9.99250687	         13.69631017	        -55.30348830	         -0.65283046	        -12.97122396	         38.65568519	         38.65568519	          0.55561178	          0.11130179	          0.98622083	          0.05000005	          0.08244778	          0.92051802	          0.76688043	          0.83592526	          0.57265791	          0.48374642	          0.99998889	          0.05000008	          0.88930440	          0.76064863	          0.05000004	          0.77842670	          0.05000017	          0.90557221	
          0.70065068	         -2.22405572	          2.75700775	          0.96896791	         23.91628257	        -34.99704265	         10.96239033	         16.71185526	        -57.66892647	          0.07773442	        -12.84846420	         39.37975818	         39.37975818	          0.51712871	          0.10070713	          0.99030190	          0.05000005	          0.07459972	          0.94405873	          0.83592497	          0.88452037	          0.51814736	          0.43769952	          0.99999209	          0.05000009	          0.82040630	          0.70941040	          0.05000004	          0.70433832	          0.05000039	          0.81938321	
          0.70696285	         -2.57495804	          2.77995420	          0.96646345	         23.52421840	        -36.27740735	         11.80618745	         19.80260982	        -60.11033870	          0.59794529	        -12.63623082	         40.25572972	         40.25572972	          0.46790445	          0.09112096	          0.99317425	          0.05000004	          0.06749871	          0.96062724	          0.88452014	          0.91872275	          0.46882559	          0.39603557	          0.99999430	          0.05000009	          0.75633606	          0.65735784	          0.05000004	          0.63729483	          0.05000134	          0.76699606	
          0.71327501	         -2.96666235	          2.80300593	          0.96421137	         23.00744538	        -37.26733211	         12.51808077	         22.94095041	        -62.58356873	          1.03165885	        -12.33103293	         41.28394468	         41.28394468	          0.42336539	          0.08244728	          0.99519587	          0.05000004	          0.06107365	          0.97228853	          0.91872256	          0.94279518	          0.42419870	          0.35833751	          0.99999576	          0.05000009	          0.70262891	          0.61448130	          0.05000005	          0.57663226	          0.05000122	          0.77227108	
          0.71958718	         -3.38831890	          2.82620350	          0.96223396	         22.36165799	        -37.98016302	         13.09556658	         26.08851821	        -65.04982600	          1.51134181	        -11.94299223	         42.46433056	         42.46433056	          0.38306587	          0.07459925	          0.99661874	          0.05000004	          0.05526025	          0.98049602	          0.94279502	          0.95973792	          0.38381979	          0.32422786	          0.99999655	          0.05000009	          0.65086232	          0.65311960	          0.05000005	          0.52174383	          0.05000160	          0.74087485	
          0.72589935	         -3.81363681	          2.84958759	          0.96058112	         21.56168233	        -38.42088956	         13.53356656	         29.19540105	        -67.47321662	          2.01447661	        -11.50208514	         43.79355055	         43.79355055	          0.34660239	          0.06749826	          0.99762018	          0.05000004	          0.05000054	          0.98627265	          0.95973779	          0.97166261	          0.34728449	          0.29336506	          0.99580036	          0.05000010	          0.58890815	          0.59096867	          0.05000006	          0.47208003	          0.05000085	          0.73239517	
